<?xml version="1.0" encoding="utf-8"?>
<!-- Generator: Adobe Illustrator 21.1.0, SVG Export Plug-In . SVG Version: 6.00 Build 0)  -->
<svg version="1.1" id="Layer_1" xmlns="http://www.w3.org/2000/svg" xmlns:xlink="http://www.w3.org/1999/xlink" x="0px" y="0px"
	 viewBox="0 0 1600 466.1" style="enable-background:new 0 0 1600 466.1;" xml:space="preserve">
<style type="text/css">
	.st0{fill:#ED1C24;}
	.st1{fill:none;stroke:#ED1C24;stroke-width:2;}
</style>
<path class="st0" d="M384.3,255.9c-2-2,0.5-2,2.5-3c8-3,55.7-18.1,97.3-29.1s101.3-23.6,110.4-25.1c3.5-1,5,0,7,3
	c2,3.5,7,15.6,8.5,25.1c2,12,0,24.6-1,27.6c-1,2.5-4.5,2.5-12.5,5c-5,1.5-25.6,6.5-34.1,9c-9.5,3-35.6,10.5-45.2,13.5
	c-11.5,4-27.1,9-27.1,9l-82.3,1.5c0,0-1-5.5-2-6c-0.5-0.5-2-3-2.5-4c-0.5-0.5-1.5-3.5-1.5-3.5s-0.5-3-1-3.5s-2.5-4.5-3-5
	s-2.5-2.5-3-3.5s-1-2-2.5-3c-1-1-2.5-3-3.5-3.5C387.3,259.4,386.3,257.9,384.3,255.9"/>
<g>
	<path class="st0" d="M168.1,403.4c4.5-2.5,14.6-8,16.1-9c2-1,3-1,3-0.5c0,2.5,0,7,3,8c1,0.5,3-1,3.5,0c1,1.5,1,1.5,1.5,2s2,0,2,0.5
		c1,0.5,0,1.5,0.5,2c1,1,2-0.5,3-0.5c1.5,0.5,1.5,1.5,1.5,2.5c-0.5,1.5,0.5,3,3,0.5c1.5-1,1.5-0.5,2.5-1c0.5-0.5,2-0.5,2.5,0
		s1.5,1.5,2,1.5c1,0.5,2,0,3,0.5s1,2,2,2s1.5-1.5,2.5-1c1.5,1.5-1.5,4,0.5,4.5c1,0.5,1.5-0.5,2.5-0.5s1.5-1,2-1s1.5,1,2,0.5
		c1-0.5,1.5-0.5,2-1c1-0.5,2-0.5,2.5-1s0-2,2.5-2c2,0.5-0.5,2.5,0.5,3c0.5,0.5,2.5,0,3,0c1-0.5,2.5-2,2.5-3c0.5-1,2.5-5,3-6.5
		c0.5-1,2.5-5.5,3.5-7s5-7.5,5-8.5c0.5-1,2-2.5,2-3c0.5-0.5,1-3,2-5s3.5-6,4-6.5c0-0.5,2.5-5.5,3-7s3.5-5,4-6.5s2.5-5,2.5-5l2-3
		c0,0,0.5-1.5,1.5-3c1-2,3.5-5.5,4-7s3-4,3-4l1.5-3.5l1-2.5c0,0,1-3,1.5-4s2-3,2.5-4s2-6,2.5-7.5s4.5-8,4.5-9l4.5-9
		c0.5-1.5,0.5-3,1-4s2-3,2-3.5s2.5-6.5,3-7.5s0.5-2.5,1.5-2.5s1.5,1,2.5,2c0.5,1,2,1,3,1.5c1,1,3.5,4,4,4.5c0,0.5,1.5,0.5,2,1
		s0.5,1.5,1,2c0.5,0,3,2,3.5,2.5s1,2,1.5,2.5s3.5,2,4,3c0.5,0.5,4.5,5.5,5,6.5s1,2.5,1,3c0.5,0.5,2,1.5,2,2s0,3,0.5,3.5s2,1.5,2.5,2
		c0,0.5,1,3,1.5,3.5l1.5,1.5c0.5,0.5,0.5,3,1,3.5s1.5,2.5,2,3.5s1.5,2.5,2,3c0,0.5,0.5,3,0.5,4c0.5,1,1.5,2.5,1.5,3s0.5,2,0.5,2
		l1,2.5c0,0,1,2.5,1,3c0,1,0,2,0.5,2.5c0,0.5,1,2,1,2.5s1.5,3.5,1.5,3.5s-0.5,2.5,0,3c0,0.5,1.5,2.5,1.5,3s-0.5,2-0.5,2l0.5,1
		c0,0-0.5,1.5,0,2v2c0.5,0.5,1.5,3,1.5,3c-0.5,1-51.7,24.6-73.3,34.6c-31.6,14.6-96.8,47.7-103.9,51.7c-7,4-11.5,6.5-13,5.5
		c-4-2-10-7.5-14.6-19.6c-3.5-10-3.5-18.6-3.5-22.6c0-3,0-5.5,5-8.5C154.5,411.5,163.6,406.4,168.1,403.4 M77.8,223.3
		c0,0.5,1.5,0.5,2,0.5s1,1,1.5,1h1.5c1,0.5,0.5,1.5,1,2s0.5,2,1.5,2s1.5,0,2,1c0,0.5-0.5,2,0,3c1.5,2.5,0,9,1.5,9.5c1,0.5,5-0.5,6-2
		c1.5-1,3-3,4-3.5c2-1,5.5-3,7.5-3c2-0.5,2.5-3,4.5-3.5c1.5,0,1-1.5,2.5-2c1-0.5,3.5-1.5,4-1s1,1.5,2,1.5c1.5,0.5,3,0,3,1.5
		c0.5,2,3.5,0,3.5,0s4-2.5,5.5-3.5c1.5-0.5,6-3,6-3s3.5-2,5-2.5c55.2-26.6,98.3-41.1,138-56.2c63.2-24.1,170.6-51.7,191.2-56.7
		c2-0.5,7-1.5,7.5-1.5c0.5-0.5,1.5-0.5,2-2.5s-1-4.5-1-5.5s2-5,2.5-6.5c0-1.5-1.5-2-1.5-2v-3.5c-0.5-1.5-3-3-3.5-4s0-5-0.5-6
		s-2-2-2-2s0.5-0.5,0-1.5s-1.5-1-1.5-1s0.5-2.5,0-3c0-1-1.5-1.5-1.5-1.5s-1.5-1-1.5-2s0-1.5-1-2c-0.5-0.5-3-0.5-3.5-0.5
		s-2.5-0.5-3.5-0.5s-1.5,1-5,2c-3.5,0.5-5,0-6.5,0s-3,1-5,1.5c-16.6,4.5-92.8,26.6-149,47.7c-52.2,18.6-114.4,47.2-152.5,66.7
		c-28.6,15.1-44.2,23.6-50.2,27.6c-3.5,2-7,4.5-7.5,5.5c-1,1.5-2,3.5-3.5,4c-2.5,0.5-2,1.5-2.5,2c-1,0-2,1-2.5,2
		C77.3,221.8,77.3,222.8,77.8,223.3 M314.6,189.2c-2.5-1.5-1.5-3,1.5-4c18.1-7.5,64.2-24.1,90.3-32.6c22.6-7,84.3-27.1,101.9-32.1
		c4-1,6-1,7.5,1c4.5,5,9,11.5,13.5,20.1c4,7.5,7.5,18.6,8.5,25.6c1,5-1.5,6-4,7c-19.1,8.5-66.7,29.1-86.3,38.6
		c-19.1,9-54.2,26.1-66.2,32.1c-5,2.5-4,3.5-7.5-0.5c-1-1-2.5-4-3-4.5s-7-6.5-8-7.5c-0.5-0.5-4.5-5-5.5-6c-1-0.5-4-5-5-5.5
		s-2.5-1.5-3.5-2c-0.5-0.5-2-2.5-2.5-2.5c-0.5-0.5-2.5-2-2.5-2l-2.5-2.5l-2-2c0,0-1.5-2-3-2.5c-1-0.5-3-2.5-3.5-3s-4.5-5.5-6.5-7
		c-2-1-6.5-4.5-7.5-5C318.1,191.2,316.6,190.2,314.6,189.2 M285,97.4c-2.5,0-4.5,0-5-0.5s0-1-0.5-1.5s-1.5-0.5-2,0s-0.5,0.5-1,0.5
		c-1,0.5-4-1-5-0.5s-3.5,0.5-4,0c-1-0.5-1-2.5-2.5-3c-0.5-0.5-3-1.5-3.5-3s-2.5-3-3-4s-1-2.5-1.5-3s-1-2.5-1.5-3l-1.5-1.5
		c-0.5-0.5-1-2.5-1.5-3c0-0.5-1-1-1-1.5c-0.5-0.5-0.5-1-0.5-2c-0.5-0.5-1-1.5-1.5-2.5c0-0.5-0.5-5-0.5-8c0-3.5,0-6,0.5-7.5
		s1-2.5,1.5-4s2-6,2.5-8s1.5-6,2-7.5s2-5,2.5-6s3.5-5.5,4.5-6.5c1-1.5,6-6.5,7.5-7.5c1-1,4-3,5-3.5c0.5-0.5,4-3,5-3.5s2-0.5,2-0.5
		l1-1c0,0,0.5-0.5,1.5-1c0.5-0.5,2-0.5,2-0.5s2-1.5,3.5-1c1,0,1.5-1.5,2-1.5c1-1,4-1,4-1c0.5,0.5,1,1,2.5,1c1.5,0.5,2.5,0,3.5,0
		s1.5,1,2,1.5c0.5,0,7,6.5,8,8c0.5,0.5,0.5,1.5,0.5,2c0.5,0.5,1.5,1,2,3c0,1,1.5,1.5,1.5,3.5c0,1,2,2,3,4.5c0,0.5,0.5,3,0.5,3
		c0,0.5,0.5,0.5,1,1.5s0.5,2,0.5,3s1.5,4.5,1.5,7s-0.5,4.5-1,6.5c-0.5,1.5,0,5-0.5,6.5s-1.5,4.5-1.5,5.5s-3,8-3.5,8.5s-2,4-3,5
		c-0.5,1-6.5,8.5-7.5,10c-1,1-3.5,3-4,3.5c-0.5,1-1,2-2,3.5c-1,2-2.5,0.5-3.5,1.5c-1,1.5-3,2-3.5,3c-0.5,1.5-2,3-2.5,3.5
		C289.5,96.4,286.5,97.4,285,97.4 M120.4,338.7c0,0-24.1,8-33.6,11.5c-9,3-19.1,6.5-25.6,9.5c-8,3.5-22.6,9-26.1,10.5
		c-5.5,2-7.5,1-9-2.5c-1.5-3-5-10-7-17.6c-2-8-2.5-14-2.5-16.6s2-6.5,5-8.5c3-1.5,10-6,15.6-9c10.5-6,47.7-26.1,69.7-37.1
		c23.1-12,60.2-30.1,79.8-39.6s52.2-25.1,56.2-27.1c4-1.5,8-3.5,10-3.5s1,1,1,1.5s-0.5,1-1,2.5c0,1.5,0,3-0.5,4.5s-2,3-2,4
		s-0.5,4.5-1.5,5.5s-4.5,8-5,11s-2.5,8.5-3,9.5l-3.5,7c0,1.5-2,5-2.5,6.5s-3.5,7-4,8s-2.5,7.5-3,8.5s-2.5,4-2.5,4l-1,4
		c0,0-2.5,4-2.5,4.5s-2,7.5-3,9s-5.5,12-6.5,15.6c-1,3.5-2.5,9-3,10s-3,5.5-3.5,7s-2.5,9-3.5,10c-0.5,1.5-2.5,5.5-2.5,7
		s-1.5,4.5-2.5,7.5c-1,2.5-2.5,7.5-3.5,9c-0.5,1.5-1.5,3-2,4c0,1-0.5,3.5-0.5,4.5c0,0.5-0.5,2-0.5,2c-1,0.5-66.7,28.6-76.3,33.1
		c-9.5,4.5-75.8,36.1-80.3,38.1c-4,2-9.5,6-13.5,3.5c-5.5-3.5-10.5-11-14-18.1c-3-5.5-6-15.1-6.5-21.6c-0.5-8.5,3-10,15.1-17.1
		c6-3.5,54.2-28.6,69.2-36.6C89.3,355.3,120.4,338.7,120.4,338.7"/>
</g>
<path d="M1008.5,306.6l-10,40.6H998l-9.5-40.6h-19.6l-15.6,62.7h14l10.5-40.1l10,40.1h19.1l16.1-62.7 M920.7,338.2l11-18.1l1,18.1
	H920.7z M925.2,306.6c-13.5,21.1-27.1,42.1-41.1,62.2h18.1l11-17.6h19.1l1,18.1h17.6c-2-20.6-4.5-42.1-6-62.2h-19.6L925.2,306.6z
	 M1043.6,323.7c1-3.5,5.5-4.5,8-4.5c5,0,7.5,1,11,3c0,0,3-12.5,3-13c-5-3-10.5-3.5-15.1-3.5c-14.5,0-22.1,8.5-23.6,16.1
	c-3,14.5,14.5,22.6,12.5,29.1c-1.5,5-6,5-9,5c-4.5,0-9-1.5-13-3.5l-3.5,14.6c4.5,1.5,11.5,3,16.6,3c17.1,0,22.6-7.5,24.1-16.1
	C1058.6,339.7,1041.6,331.7,1043.6,323.7 M877,323.7c1-3.5,5.5-4.5,8-4.5c5,0,7.5,1,11,3c0,0,4-12,4-12.5c-5.5-3.5-11.5-4-15.6-4
	c-14.5,0-22.1,8.5-23.6,16.1c-3,14.5,14.5,22.6,12.5,29.1c-1.5,5-6,5-9,5c-4.5,0-9-1.5-13-3.5l-3.5,14.6c4.5,1.5,11.5,3,16.6,3
	c17.1,0,22.6-7.5,24.1-16.1C892.1,339.7,874.5,331.7,877,323.7 M1302,347.2l-9.5-40.6h-19.6l-16.1,62.2h14.5l10-39.6h0.5l10,39.6
	h19.1l16.1-62.2h-14.6 M1118.8,320.1h24.1l3-13.5h-40.1l-15.6,62.2h16.1l6.5-24.6h20.1l3-13h-19.6 M1379.2,306.6h-46.7l-3.5,13.5
	h15.1l-12.5,48.7h16.6l12.5-48.7h15.1 M1384.8,306.6l-16.1,62.2h16.6l16.1-62.2 M1438.4,344.2l3.5-13h-20.6l2.5-11h26.1l3.5-13.5
	h-42.6l-15.6,62.2h42.1l3.5-13h-26.1l3-11.5 M1543.8,344.2l3-13h-21.1l3-11h26.1l3.5-13.5h-42.6l-16.1,62.2h42.6l3.5-13h-26.1
	l3-11.5 M1242.3,337.7c-2.5,10-10,18.6-19.6,18.6c-10,0-12.5-9-10-18.6s9.5-18.6,19.6-18.6C1241.8,319.1,1244.8,327.7,1242.3,337.7
	 M1235.7,305.6c-18.6,0-34.1,11.5-39.6,32.1s4.5,32.1,23.1,32.1c17.6,0,33.1-10,39.1-30.6C1264.3,317.6,1254.3,305.6,1235.7,305.6
	 M1577.9,323.7c1-3,5.5-4.5,8-4.5c5,0,7.5,1,11,3c0,0,3-12.5,3-13c-5-3-10.5-3.5-15.1-3.5c-14.5,0-22.1,8.5-23.6,16.1
	c-2.5,14.5,14.6,22.6,12.5,29.1c-1.5,5-6,5-9,5c-4.5,0-9-1.5-13-3.5l-3.5,14.6c4.5,1.5,11.5,3,16.6,3c17.1,0,22.6-7.5,24.1-16.1
	C1593,339.2,1575.4,331.2,1577.9,323.7 M1178.6,341.7c8.5-1.5,14.5-9,16.6-16.1c3-12.5-0.5-19.1-14-19.1H1153l-16.1,62.2h15.6
	l12.5-49.2h8c2.5,0,7.5,0,5.5,6.5c-1,5-5,8-12,8h-6l5.5,34.6h17.6C1184.6,368.8,1179.1,342.7,1178.6,341.7 M1487.1,341.7
	c8.5-1.5,14.5-9,16.6-16.1c3-12.5-0.5-19.1-14-19.1h-28.1l-16.1,62.2h15.6l12.5-49.2h8c2.5,0,7.5,0,5.5,6.5c-1.5,5-5,8-12,8h-5.5
	l5.5,34.6h17.6C1493.1,368.8,1487.6,342.7,1487.1,341.7 M625.7,368.8l3-13h-25.6l2.5-11.5h21.6l3-13h-21.1l3-11h26.1l3-13.5h-42.1
	l-16.1,62 M515.8,368.8l3-13h-25.6l2.5-11.5h21.1l3.5-13h-21.1l3-11h25.6l3.5-13.5h-42.1L473.1,369 M660.8,369.8c3,0,11-1,16.1-2
	l4-14.5c-5,1.5-10,2.5-16.6,2.5c-10,0-12.5-9-10-18.6c2-8.5,9.5-18.6,22.6-18.6c4,0,8,1,12,2.5l3.5-14c-4-1.5-10-2-14.5-2
	c-18.6,0-34.6,11.5-39.6,32.1C632.7,358.3,642.2,369.8,660.8,369.8 M701.4,368.8l16.1-62.2h-16.6l-16.1,62.2 M425,324.7h0.5l-1,44.2
	h14l22.1-44.7l-11,44.7h13.5l16.1-62.2h-22.1l-19.1,39l1-39.1h-23.1l-16.1,62.2h14 M725.5,368.8l10.5-39.6l10,39.6h19.1l16.1-62.2
	h-14.5l-10,40.6h-0.5l-9.5-40.6H727l-15.6,62.2 M568.5,337.7c-2.5,9-9,18.1-18.1,18.1h-7l9-35.6h8
	C569.5,320.1,571.5,326.2,568.5,337.7 M585,337.7c6.5-26.1-7.5-31.1-15.1-31.1h-29.6l-16.1,62.2h26.1
	C568.5,368.8,580,355.8,585,337.7 M801.8,323.7c1-3.5,5.5-4.5,8-4.5c5,0,7.5,1,11,3c0,0,3-12.5,3-13c-5-3-10.5-3.5-14.5-3.5
	c-14.5,0-22.1,8.5-23.6,16.1c-2.5,14.5,14.5,22.6,12.5,29.1c-1.5,5-6,5-9,5c-4.5,0-9-1.5-13-3.5l-3.5,14.6c4.5,1.5,11.5,3,16.6,3
	c17.1,0,22.6-7.5,24.1-16.1C816.8,339.7,799.2,331.7,801.8,323.7"/>
<path class="st1" d="M392.3,386.4h1200.1"/>
<path d="M749.1,419.5c1-3.5,5.5-4.5,8-4.5c5,0,7.5,1,11,3c0,0,3-12.5,3-13c-5-3-10.5-3.5-14.5-3.5c-14.5,0-22.1,8.5-23.6,16.1
	c-3,14.5,14.5,22.6,12.5,29.1c-1.5,5-6,5-9,5c-4.5,0-9-1.5-13-3.5l-3.5,14.6c4.5,1.5,11.5,3,16.6,3c17.1,0,22.6-7.5,24.1-16.1
	C764.1,435.5,747.1,427.5,749.1,419.5 M612.1,402.9h-46.2l-3.5,13h15.1L565,465.1h16.6l12.5-49.2h15.1 M707.4,437.6
	c8.5-1.5,14.5-9,16.6-16.1c3-12.5-0.5-19.1-14-19.1h-27.6l-16.1,62.2h15.6l12.5-49.2h8c2.5,0,7.5,0,5.5,6.5c-1.5,5-5,8-12,8h-6
	l5.5,34.6H713C713,465.1,707.4,439.1,707.4,437.6 M528.8,466.2c3,0,11-0.5,15.6-1.5l4-14.6c-5,1.5-9.5,2-16.1,2
	c-10,0-12.5-9-10-18.6c2-8.5,9.5-18.6,22.6-18.6c4,0,8,1,12,2.5l3.5-14c-4-1.5-10-2-14.5-2c-18.6,0-34.6,11.5-39.6,32.1
	C500.2,454.6,510.3,466.2,528.8,466.2 M418.4,434c-2.5,9-9,18.1-18.1,18.1h-6l9-35.6h7C419.4,416,421.4,422.5,418.4,434 M434.5,434
	c6.5-26.1-7.5-31.1-15.1-31.1h-28.1l-16.1,62.2h24.6C417.9,465.1,430,452.1,434.5,434 M478.1,401.4c-18.1,0-33.6,11.5-38.6,32.1
	s4.5,32.1,22.6,32.1c17.1,0,32.6-10,38.1-30.6C506.2,414,496.2,401.4,478.1,401.4z M485.2,434.5c-3,10-11,18.1-20.6,17.6
	c-10-0.5-12-9.5-9-19.1s10.5-18.1,20.6-17.6C485.7,416,488.2,424.5,485.2,434.5z M645.2,401.4c-18.1,0-33.6,11.5-38.6,32.1
	s4.5,32.1,22.6,32.1c17.1,0,32.6-10,38.1-30.6C673.3,414,663.3,401.4,645.2,401.4z M652.7,434.5c-3,10-11,18.1-20.6,17.6
	c-10-0.5-12-9.5-9-19.1c3-9.5,10.5-18.1,20.6-17.6C652.7,416,655.3,424.5,652.7,434.5z M885.5,402.9l-16.1,62.2H886l15.6-62.2
	 M1189.6,402.9h-46.2l-3.5,13h15.1l-12.5,49.2h16.6l12-49.2h15.1 M953.8,402.9h-46.2l-3.5,13h15.1l-12.5,49.2h16.6l12.5-49.2h14.5
	 M1101.3,402.9l-9,35.6c-2.5,9-1.5,14.6,6,14.6s11-5.5,13.5-14.6l9-35.6h17.1l-11,42.1c-4,15.1-16.6,21.1-32.1,21.1
	s-25.1-6-21.1-21.1l11-42.1L1101.3,402.9L1101.3,402.9z M879.5,402.9l-27.1,62.2h-18.1l3-38.6h-0.5l-14.5,38.6h-17.1l1.5-62.2h14
	l-2,43.7l16.1-43.7h16.1l-3.5,43.7h0.5l18.1-43.7 M959.8,402.9h15.6l-6,23.1h20.1l6-23.1h15.6L995,465.1h-15.6l6.5-26.1h-20.1
	l-6.5,26.1h-15.6 M1047.6,401.4c-18.1,0-33.6,11.5-38.6,32.1s4.5,32.1,22.6,32.1c17.1,0,32.6-10,38.1-30.6
	C1075.7,414,1065.7,401.4,1047.6,401.4L1047.6,401.4z M1054.6,434.5c-3,10-11,18.1-20.6,17.6c-10-0.5-12-9.5-9-19.1
	c3-9.5,10.5-18.1,20.6-17.6C1055.1,416,1057.6,424.5,1054.6,434.5z M1425.4,434c-2.5,9-9,18.1-18.1,18.1h-6l9-35.6h7
	C1426.4,416,1428.4,422.5,1425.4,434 M1442,434c6.5-26.1-7.5-31.1-15.1-31.1h-28.1l-16.1,62.2h24.6
	C1425.4,465.1,1436.9,452.1,1442,434 M1568.9,419.5c1-3.5,5.5-4.5,8-4.5c5,0,7.5,1,11,3c0,0,3-12.5,3-13c-5-3-10.5-3.5-14.5-3.5
	c-14.6,0-22.1,8.5-23.6,16.1c-3,14.5,14.5,22.6,12.5,29.1c-1.5,5-6,5-9,5c-4.5,0-9-1.5-13-3.5l-3.5,14.6c4.5,1.5,11.5,3,16.6,3
	c17.1,0,22.6-7.5,24.1-16.1C1584.4,435.5,1566.9,427.5,1568.9,419.5 M1531.3,437.6c8.5-1.5,14.5-9,16.6-16.1
	c3-12.5-0.5-19.1-14-19.1h-27.6l-16.1,62.2h15.6l12.5-49.2h8c2.5,0,7.5,0,5.5,6.5c-1.5,5-5,8-12,8h-6l5.5,34.6h17.6
	C1537.3,465.1,1531.3,439.1,1531.3,437.6 M1369.7,437.6c8.5-1.5,14.5-9,16.6-16.1c3-12.5-0.5-19.1-14-19.1h-27.6l-16.1,62.2h15.6
	l12.5-49.2h8c2.5,0,7.5,0,5.5,6.5c-1.5,5-5,8-12,8h-6l5.5,34.6h17.6C1375.7,465.1,1370.2,439.1,1369.7,437.6 M1481.6,465.1l3-13.5
	H1459l2.5-11h21.6l3-13.5H1465l3-11h26.1l3-13H1455l-16.1,62.2 M1237.3,427.5h3c4.5,0,10,0.5,12-7.5c1.5-5-3.5-5-7.5-5h-4.5
	L1237.3,427.5z M1230.7,452.6h5.5c5,0,9.5,0,11-7c1.5-6.5-3-6.5-7-6.5h-6L1230.7,452.6z M1228.2,402.9h31.6c4.5,0,11,4,8,15.1
	c-2,7.5-6,13-13.5,15.1c6.5,1,9.5,6.5,7.5,15.1c-3.5,13.5-12,16.6-23.6,16.6h-26.1L1228.2,402.9L1228.2,402.9z M1307.5,401.4
	c-18.1,0-33.6,11.5-38.6,32.1s4.5,32.1,22.6,32.1c17.1,0,32.6-10,38.1-30.6C1335.6,414,1326.1,401.4,1307.5,401.4z M1315,434.5
	c-3,10-11,18.1-20.6,17.6c-10-0.5-12-9.5-9-19.1s10.5-18.1,20.6-17.6C1315.5,416,1317.5,424.5,1315,434.5z"/>
</svg>
